<svg width="54" height="54" viewBox="0 0 54 54" fill="none" xmlns="http://www.w3.org/2000/svg">
    <path d="M54 9.9H50.4H49.05H45.45H44.55H40.95H40.05H39.6V7.2H37.8V6.2001C37.8 2.781 35.019 0 31.5999 0H22.4001C18.981 0 16.2 2.781 16.2 6.2001V7.2H14.4V9.9H13.95H13.05H9.45H8.55H4.95H3.6H0V13.7205C0 15.7122 0.3204 17.6283 0.9 19.4292V46.2456C0.9 48.0618 2.1303 49.6368 3.8916 50.0769L12.3795 52.2C17.1495 53.3925 22.0554 53.9892 26.9622 53.9928C26.9757 53.9928 26.9865 54 27 54C27.0135 54 27.0243 53.9928 27.0378 53.9928C31.9446 53.9901 36.8505 53.3925 41.6205 52.2L50.1084 50.0778C51.8697 49.6368 53.1 48.0618 53.1 46.2465V19.4292C53.6796 17.6283 54 15.7113 54 13.7205V9.9ZM37.8 9.9H36.45H35.55H32.4V9H37.8V9.9ZM27.45 9.9H26.55H23.4V7.2H21.6V5.7996C21.6 5.5557 21.7575 5.4243 21.825 5.3784C21.8916 5.3325 22.0725 5.2389 22.2993 5.3307C25.3314 6.5844 28.6695 6.5844 31.6998 5.3307C31.9248 5.2389 32.1075 5.3325 32.1741 5.3784C32.2425 5.4243 32.4 5.5557 32.4 5.7996V7.2H30.6V9.9H27.45ZM18 6.2001C18 3.7737 19.9737 1.8 22.4001 1.8H31.6008C34.0263 1.8 36 3.7737 36 6.2001V7.2H34.2V5.7996C34.2 5.0283 33.8166 4.3119 33.1758 3.8826C32.5341 3.4524 31.725 3.3741 31.0131 3.6684C28.4256 4.7376 25.5744 4.7376 22.9869 3.6684C22.2741 3.3732 21.4659 3.4524 20.8242 3.8826C20.1834 4.3119 19.8 5.0283 19.8 5.7996V7.2H18V6.2001ZM16.2 9H21.6V9.9H18.45H17.55H16.2V9ZM1.8 11.7H3.7377C3.8943 11.9646 4.1697 12.15 4.5 12.15C4.8312 12.15 5.1138 11.9664 5.2704 11.7H8.55H9.45H13.05H13.95H14.4H17.55H18.45H22.05H22.95H23.4H26.55H27.45H30.6H31.05H31.95H35.55H36.45H39.6H40.05H40.95H44.55H45.45H48.7296C48.8862 11.9664 49.1688 12.15 49.5 12.15C49.8294 12.15 50.1057 11.9646 50.2623 11.7H52.2V13.7205C52.2 23.0283 44.6283 30.6 35.3205 30.6H32.4V25.2H21.6V30.6H18.6795C9.3717 30.6 1.8 23.0283 1.8 13.7205V11.7ZM30.6 32.4V35.1H23.4V32.4V27H30.6V32.4ZM6.3 48.825V48.015C6.3 47.5173 5.8977 47.115 5.4 47.115C4.9023 47.115 4.5 47.5173 4.5 48.015V48.375L4.3281 48.3318C3.3696 48.0924 2.7 47.2338 2.7 46.2465V23.3442C3.2346 24.228 3.8313 25.0677 4.5 25.848V26.415C4.5 26.9127 4.9023 27.315 5.4 27.315C5.544 27.315 5.6754 27.2736 5.7969 27.2133C9.1512 30.4182 13.6845 32.4 18.6795 32.4H21.6V36.9H26.1V52.1793C21.6279 52.1109 17.1639 51.5412 12.8151 50.454L6.3 48.825ZM51.3 46.2465C51.3 47.2347 50.6304 48.0924 49.6719 48.3318L49.4514 48.3867C49.3443 48.0087 49.0122 47.727 48.6 47.727C48.1023 47.727 47.7 48.1293 47.7 48.627V48.825L41.1849 50.454C36.8361 51.5403 32.3721 52.1109 27.9 52.1793V36.9H32.4V32.4H35.3205C40.1517 32.4 44.5464 30.5406 47.8665 27.5193C48.0285 27.7596 48.2886 27.927 48.6 27.927C49.0977 27.927 49.5 27.5247 49.5 27.027V26.127C49.5 26.046 49.4739 25.9731 49.4541 25.8984C50.1408 25.1028 50.7537 24.2478 51.3 23.3442V46.2465Z" fill="#A72C24"/>
    <path d="M25.7112 32.4H26.1V33.3C26.1 33.7977 26.5023 34.2 27 34.2C27.4977 34.2 27.9 33.7977 27.9 33.3V32.4H28.2888C29.0673 32.4 29.7 31.7673 29.7 30.9888V29.3121C29.7 28.5327 29.0673 27.9 28.2888 27.9H25.7121C24.9327 27.9 24.3 28.5327 24.3 29.3112V30.9879C24.3 31.7673 24.9327 32.4 25.7112 32.4ZM26.1 29.7H27.9V30.6H26.1V29.7Z" fill="#A72C24"/>
    <path d="M34.2 28.8H34.65C35.1477 28.8 35.55 28.3977 35.55 27.9C35.55 27.4023 35.1477 27 34.65 27H34.2C33.7023 27 33.3 27.4023 33.3 27.9C33.3 28.3977 33.7023 28.8 34.2 28.8Z" fill="#A72C24"/>
    <path d="M38.1384 28.5192C38.1969 28.5192 38.2572 28.5138 38.3175 28.5012C38.6244 28.4391 38.9286 28.368 39.2283 28.2861C39.708 28.1547 39.9915 27.6606 39.8601 27.1809C39.7287 26.7003 39.2319 26.4177 38.7549 26.5491C38.4939 26.6202 38.2284 26.6823 37.9602 26.7363C37.4733 26.8344 37.1574 27.3096 37.2564 27.7974C37.3428 28.224 37.719 28.5192 38.1384 28.5192Z" fill="#A72C24"/>
    <path d="M42.2316 27.0018C42.3801 27.0018 42.5313 26.9649 42.6699 26.8866C42.9426 26.7345 43.2081 26.5752 43.47 26.4069C43.8876 26.1387 44.0091 25.5816 43.74 25.1631C43.4718 24.7455 42.9165 24.6222 42.4962 24.8931C42.2658 25.0407 42.03 25.182 41.7915 25.317C41.3577 25.56 41.2029 26.1081 41.4459 26.541C41.6097 26.8362 41.9157 27.0018 42.2316 27.0018Z" fill="#A72C24"/>
    <path d="M47.7468 20.6271C47.8728 20.6865 48.0042 20.7153 48.1347 20.7153C48.4704 20.7153 48.7926 20.5263 48.9474 20.2041C49.0806 19.9242 49.2057 19.6407 49.3227 19.3536C49.5099 18.8928 49.2876 18.3681 48.8268 18.1809C48.3678 17.9946 47.8413 18.2151 47.6541 18.6768C47.5515 18.9306 47.4408 19.1817 47.3229 19.4274C47.1087 19.8747 47.2986 20.4129 47.7468 20.6271Z" fill="#A72C24"/>
    <path d="M45.6687 24.3135C45.909 24.3135 46.1475 24.2181 46.3248 24.03C46.5363 23.8041 46.7415 23.5719 46.9404 23.3334C47.259 22.9509 47.2068 22.3839 46.8243 22.0662C46.4418 21.7476 45.873 21.8016 45.5571 22.1823C45.3816 22.3929 45.1998 22.599 45.0126 22.7988C44.6724 23.1615 44.6913 23.7312 45.0531 24.0714C45.2268 24.2325 45.4482 24.3135 45.6687 24.3135Z" fill="#A72C24"/>
    <path d="M49.266 16.5267C49.3074 16.5321 49.3479 16.5348 49.3875 16.5348C49.8312 16.5348 50.2182 16.2072 50.2785 15.7554C50.3199 15.4494 50.3523 15.1398 50.3739 14.8293C50.4099 14.3334 50.0373 13.9023 49.5414 13.8672C49.0554 13.8366 48.6153 14.2038 48.5793 14.6997C48.5595 14.9742 48.5298 15.246 48.4938 15.5151C48.429 16.0074 48.7737 16.4601 49.266 16.5267Z" fill="#A72C24"/>
    <path d="M14.7663 28.2861C15.0651 28.3662 15.3675 28.4373 15.6735 28.4994C15.7338 28.512 15.795 28.5183 15.8544 28.5183C16.2729 28.5183 16.6482 28.2249 16.7355 27.7983C16.8345 27.3114 16.5213 26.8362 16.0344 26.7363C15.7635 26.6805 15.498 26.6184 15.2343 26.5473C14.7573 26.4204 14.2614 26.703 14.1309 27.1827C14.0022 27.6624 14.2866 28.1565 14.7663 28.2861Z" fill="#A72C24"/>
    <path d="M6.6726 19.4184C6.5538 19.1718 6.444 18.9216 6.3414 18.6678C6.1551 18.207 5.6313 17.9838 5.1696 18.171C4.7088 18.3573 4.4865 18.882 4.6728 19.3428C4.7898 19.6317 4.9158 19.917 5.0499 20.1969C5.2047 20.5191 5.526 20.7072 5.8617 20.7072C5.9922 20.7072 6.1245 20.6793 6.2505 20.6181C6.6987 20.4039 6.8877 19.8666 6.6726 19.4184Z" fill="#A72C24"/>
    <path d="M7.6689 24.0246C7.8462 24.2127 8.0856 24.3081 8.325 24.3081C8.5455 24.3081 8.7669 24.2271 8.9415 24.0642C9.3033 23.724 9.3222 23.1543 8.982 22.7916C8.7939 22.5918 8.613 22.3875 8.4384 22.176C8.1198 21.7926 7.5537 21.7386 7.1712 22.0563C6.7878 22.374 6.7356 22.941 7.0515 23.3235C7.2513 23.5647 7.4565 23.7969 7.6689 24.0246Z" fill="#A72C24"/>
    <path d="M10.5246 26.4033C10.7856 26.5725 11.052 26.7318 11.3247 26.8839C11.4633 26.9622 11.6145 26.9991 11.763 26.9991C12.0789 26.9991 12.384 26.8335 12.5487 26.5383C12.7926 26.1054 12.6378 25.5564 12.2031 25.3143C11.9637 25.1802 11.7297 25.0389 11.5002 24.8913C11.0817 24.6213 10.5246 24.741 10.2564 25.1595C9.9873 25.5771 10.107 26.1342 10.5246 26.4033Z" fill="#A72C24"/>
    <path d="M4.7376 16.5186C5.2299 16.4502 5.5737 15.9948 5.5044 15.5025C5.4666 15.2334 5.4396 14.9625 5.4189 14.6907C5.3829 14.1939 4.9491 13.8177 4.4568 13.8582C3.9609 13.8933 3.5883 14.3253 3.6243 14.8203C3.6459 15.1335 3.6792 15.444 3.7215 15.7518C3.7845 16.2018 4.1697 16.5267 4.6116 16.5267C4.653 16.5267 4.6953 16.524 4.7376 16.5186Z" fill="#A72C24"/>
    <path d="M19.35 28.8H19.8C20.2977 28.8 20.7 28.3977 20.7 27.9C20.7 27.4023 20.2977 27 19.8 27H19.35C18.8523 27 18.45 27.4023 18.45 27.9C18.45 28.3977 18.8523 28.8 19.35 28.8Z" fill="#A72C24"/>
    <path d="M48.6 43.227C48.1023 43.227 47.7 43.6293 47.7 44.127V45.027C47.7 45.5247 48.1023 45.927 48.6 45.927C49.0977 45.927 49.5 45.5247 49.5 45.027V44.127C49.5 43.6302 49.0977 43.227 48.6 43.227Z" fill="#A72C24"/>
    <path d="M48.6 29.727C48.1023 29.727 47.7 30.1293 47.7 30.627V31.527C47.7 32.0247 48.1023 32.427 48.6 32.427C49.0977 32.427 49.5 32.0247 49.5 31.527V30.627C49.5 30.1302 49.0977 29.727 48.6 29.727Z" fill="#A72C24"/>
    <path d="M48.6 34.227C48.1023 34.227 47.7 34.6293 47.7 35.127V36.027C47.7 36.5247 48.1023 36.927 48.6 36.927C49.0977 36.927 49.5 36.5247 49.5 36.027V35.127C49.5 34.6302 49.0977 34.227 48.6 34.227Z" fill="#A72C24"/>
    <path d="M48.6 38.727C48.1023 38.727 47.7 39.1293 47.7 39.627V40.527C47.7 41.0247 48.1023 41.427 48.6 41.427C49.0977 41.427 49.5 41.0247 49.5 40.527V39.627C49.5 39.1302 49.0977 38.727 48.6 38.727Z" fill="#A72C24"/>
    <path d="M5.4 42.615C4.9023 42.615 4.5 43.0173 4.5 43.515V44.415C4.5 44.9127 4.9023 45.315 5.4 45.315C5.8977 45.315 6.3 44.9127 6.3 44.415V43.515C6.3 43.0173 5.8977 42.615 5.4 42.615Z" fill="#A72C24"/>
    <path d="M5.4 38.115C4.9023 38.115 4.5 38.5173 4.5 39.015V39.915C4.5 40.4127 4.9023 40.815 5.4 40.815C5.8977 40.815 6.3 40.4127 6.3 39.915V39.015C6.3 38.5173 5.8977 38.115 5.4 38.115Z" fill="#A72C24"/>
    <path d="M5.4 29.115C4.9023 29.115 4.5 29.5173 4.5 30.015V30.915C4.5 31.4127 4.9023 31.815 5.4 31.815C5.8977 31.815 6.3 31.4127 6.3 30.915V30.015C6.3 29.5173 5.8977 29.115 5.4 29.115Z" fill="#A72C24"/>
    <path d="M5.4 33.615C4.9023 33.615 4.5 34.0173 4.5 34.515V35.415C4.5 35.9127 4.9023 36.315 5.4 36.315C5.8977 36.315 6.3 35.9127 6.3 35.415V34.515C6.3 34.0173 5.8977 33.615 5.4 33.615Z" fill="#A72C24"/>
    <path d="M32.4 14.4H21.6V19.8H32.4V14.4ZM30.6 18H23.4V16.2H30.6V18Z" fill="#A72C24"/>
</svg>
