<svg width="50" height="54" viewBox="0 0 50 54" fill="none" xmlns="http://www.w3.org/2000/svg">
    <path d="M25.5505 26.4841V32.3803H7.86169V26.4841H9.82712V30.4149H23.5851V26.4841H25.5505Z" fill="#A72C24"/>
    <path d="M45.2047 48.1037V16.657L39.3085 10.7607H27.5159V8.79527L21.6197 2.899H11.7925L10.4384 4.25318L6.18322 0L2.01456 4.16866L6.26773 8.42184L5.89627 8.79527V10.7607H3.93085V16.657H5.89627V20.5878H13.758V26.4841H19.6542V20.5878H27.5159V16.657H35.3776V28.4495C32.1189 28.4495 29.4813 31.0891 29.4813 34.3458H3.93085V36.3112H29.843C30.6547 38.597 32.8147 40.242 35.3776 40.242V48.1037H0V54H49.1356V48.1037H45.2047ZM6.18322 2.77911L8.96233 5.55822L7.57474 6.94974L4.79367 4.16866L6.18322 2.77911ZM7.86169 9.60895L12.6062 4.86442H20.806L25.5505 9.60895V10.7607H7.86169V9.60895ZM17.6888 24.5187H15.7234V20.5878H17.6888V24.5187ZM25.5505 18.6224H7.86169V16.657H25.5505V18.6224ZM31.4468 34.3458C31.4468 32.1779 33.2098 30.4149 35.3776 30.4149C37.6202 30.4149 39.3085 32.1956 39.3085 34.3458C39.3085 36.4507 37.7125 38.2766 35.3776 38.2766C33.2098 38.2766 31.4468 36.5136 31.4468 34.3458ZM37.343 39.8804C39.6347 39.0726 41.2739 36.9048 41.2739 34.3458C41.2739 31.7868 39.6347 29.6189 37.343 28.8111V14.6915H5.89627V12.7261H38.5026L43.2393 17.4628V48.1037H37.343V39.8804ZM47.1702 52.0346H1.96542V50.0692H47.1702V52.0346Z" fill="#A72C24"/>
    <path d="M45.2047 48.1037V16.657L39.3085 10.7607H27.5159V8.79527L21.6197 2.899H11.7925L10.4384 4.25318L6.18322 0L2.01456 4.16866L6.26773 8.42184L5.89627 8.79527V10.7607H3.93085V16.657H5.89627V20.5878H13.758V26.4841H19.6542V20.5878H27.5159V16.657H35.3776V28.4495C32.1189 28.4495 29.4813 31.0891 29.4813 34.3458H3.93085V36.3112H29.843C30.6547 38.597 32.8147 40.242 35.3776 40.242V48.1037H0V54H49.1356V48.1037H45.2047ZM6.18322 2.77911L8.96233 5.55822L7.57474 6.94974L4.79367 4.16866L6.18322 2.77911ZM7.86169 9.60895L12.6062 4.86442H20.806L25.5505 9.60895V10.7607H7.86169V9.60895ZM17.6888 24.5187H15.7234V20.5878H17.6888V24.5187ZM25.5505 18.6224H7.86169V16.657H25.5505V18.6224ZM31.4468 34.3458C31.4468 32.1779 33.2098 30.4149 35.3776 30.4149C37.6202 30.4149 39.3085 32.1956 39.3085 34.3458C39.3085 36.4507 37.7125 38.2766 35.3776 38.2766C33.2098 38.2766 31.4468 36.5136 31.4468 34.3458ZM37.343 39.8804C39.6347 39.0726 41.2739 36.9048 41.2739 34.3458C41.2739 31.7868 39.6347 29.6189 37.343 28.8111V14.6915H5.89627V12.7261H38.5026L43.2393 17.4628V48.1037H37.343V39.8804ZM47.1702 52.0346H1.96542V50.0692H47.1702V52.0346Z" fill="#A72C24"/>
</svg>
