<svg width="54" height="54" viewBox="0 0 54 54" fill="none" xmlns="http://www.w3.org/2000/svg">
    <path d="M25.6355 31.6168H18.1028C17.6168 31.6168 17.2523 31.2523 17.2523 30.7663V28.9439C17.2523 28.4579 17.4953 27.8505 17.9813 27.6075L23.5701 23.4766C24.0561 23.1121 24.4206 22.5047 24.4206 21.8972V21.0467C24.4206 20.1963 23.6916 19.4673 22.8411 19.4673H18.8318C17.9813 19.4673 17.2523 20.1963 17.2523 21.0467V21.6542" stroke="#A72C24" stroke-width="2" stroke-miterlimit="10"/>
    <path d="M33.7757 32.7103V19.4673H32.4392L26.6075 26.514V26.6355H37.1775" stroke="#A72C24" stroke-width="2" stroke-miterlimit="10"/>
    <path d="M25.757 53H20.6542C19.5607 53 18.7103 52.1495 18.7103 51.056C18.7103 49.9626 19.5607 49.1121 20.6542 49.1121H25.757C26.8505 49.1121 27.7009 49.9626 27.7009 51.056C27.7009 52.1495 26.8505 53 25.757 53Z" stroke="#A72C24" stroke-width="2" stroke-miterlimit="10"/>
    <path d="M7.7757 31.7384H3.64486C1.70093 31.7384 0 30.1589 0 28.0935V22.7477C0 20.8038 1.57944 19.1028 3.64486 19.1028H7.7757V31.7384Z" stroke="#A72C24" stroke-width="2" stroke-miterlimit="10"/>
    <path d="M45.4392 31.7384H49.5701C51.514 31.7384 53.2149 30.1589 53.2149 28.0935V22.7477C53.2149 20.8038 51.6355 19.1028 49.5701 19.1028H45.4392V31.7384Z" stroke="#A72C24" stroke-width="2" stroke-miterlimit="10"/>
    <path d="M45.0748 15.8224C43.2523 7.31776 35.5981 1 26.6075 1C17.0093 1 8.99064 8.28972 7.89719 17.6449" stroke="#A72C24" stroke-width="2" stroke-miterlimit="10" stroke-dasharray="1.99 1.99"/>
    <path d="M26.6075 51.0561C36.9346 51.0561 45.4392 42.5514 45.4392 32.2243V28.3364" stroke="#A72C24" stroke-width="2" stroke-miterlimit="10"/>
</svg>
