<svg width="52" height="54" viewBox="0 0 52 54" fill="none" xmlns="http://www.w3.org/2000/svg">
    <path d="M48.68 0H3.32001C1.76248 0 0.495392 1.26709 0.495392 2.82462V51.1754C0.495392 52.7329 1.76248 54 3.32001 54H48.68C50.2375 54 51.5046 52.7329 51.5046 51.1754V2.82462C51.5046 1.26709 50.2375 0 48.68 0ZM49.8431 51.1754C49.8431 51.8166 49.3212 52.3385 48.68 52.3385H3.32001C2.67865 52.3385 2.15693 51.8166 2.15693 51.1754V2.82462C2.15693 2.18326 2.67865 1.66154 3.32001 1.66154H48.68C49.3212 1.66154 49.8431 2.18326 49.8431 2.82462V51.1754Z" fill="#A72C24"/>
    <path d="M11.2954 35.8892H7.80615C6.24863 35.8892 4.98154 37.1563 4.98154 38.7138V42.2031C4.98154 43.7606 6.24863 45.0277 7.80615 45.0277H11.2954C12.8529 45.0277 14.12 43.7606 14.12 42.2031V38.7138C14.12 37.1563 12.8529 35.8892 11.2954 35.8892ZM12.4585 42.2031C12.4585 42.8443 11.9367 43.3661 11.2954 43.3661H7.80615C7.1648 43.3661 6.64308 42.8443 6.64308 42.2031V38.7138C6.64308 38.0726 7.1648 37.5508 7.80615 37.5508H11.2954C11.9367 37.5508 12.4585 38.0726 12.4585 38.7138V42.2031Z" fill="#A72C24"/>
    <path d="M13.581 10.1439C13.0672 9.43555 12.2353 8.97232 11.2954 8.97232H7.80615C6.24863 8.97232 4.98154 10.2394 4.98154 11.7969V15.2862C4.98154 16.8437 6.24863 18.1108 7.80615 18.1108H11.2954C12.8529 18.1108 14.12 16.8437 14.12 15.2862V11.7969C14.12 11.7084 14.1147 11.621 14.1067 11.5344L16.2248 9.41628L15.2668 8.45807L13.581 10.1439ZM12.4585 15.2862C12.4585 15.9275 11.9367 16.4492 11.2954 16.4492H7.80615C7.1648 16.4492 6.64308 15.9275 6.64308 15.2862V11.7969C6.64308 11.1556 7.1648 10.6339 7.80615 10.6339H11.2954C11.7801 10.6339 12.1959 10.9321 12.3706 11.3543L9.83589 13.889L8.1265 12.1797L7.18673 13.1195L9.44243 15.3752L9.44493 15.3726L9.85649 15.7846L12.4585 13.1827V15.2862Z" fill="#A72C24"/>
    <path d="M15.2668 21.9165L13.581 23.6023C13.0672 22.894 12.2353 22.4307 11.2954 22.4307H7.80615C6.24863 22.4307 4.98154 23.6978 4.98154 25.2554V28.7446C4.98154 30.3021 6.24863 31.5692 7.80615 31.5692H11.2954C12.8529 31.5692 14.12 30.3021 14.12 28.7446V25.2554C14.12 25.1668 14.1147 25.0794 14.1067 24.9928L16.2248 22.8747L15.2668 21.9165ZM12.4585 28.7446C12.4585 29.3858 11.9367 29.9077 11.2954 29.9077H7.80615C7.1648 29.9077 6.64308 29.3858 6.64308 28.7446V25.2554C6.64308 24.614 7.1648 24.0923 7.80615 24.0923H11.2954C11.7801 24.0923 12.1959 24.3905 12.3706 24.8127L9.83589 27.3474L8.1265 25.6382L7.18673 26.5779L9.44243 28.8336L9.44493 28.831L9.85649 29.243L12.4585 26.6411V28.7446Z" fill="#A72C24"/>
    <path d="M43.1969 9.8031H17.7754V11.2985H43.1969V9.8031Z" fill="#A72C24"/>
    <path d="M31.2339 12.7938H17.7754V14.2892H31.2339V12.7938Z" fill="#A72C24"/>
    <path d="M43.1969 24.7569H17.7754V26.2523H43.1969V24.7569Z" fill="#A72C24"/>
    <path d="M38.7108 27.7477H17.7754V29.2431H38.7108V27.7477Z" fill="#A72C24"/>
    <path d="M41.7015 38.2154H17.7754V39.7108H41.7015V38.2154Z" fill="#A72C24"/>
</svg>
