<svg width="54" height="54" viewBox="0 0 54 54" fill="none" xmlns="http://www.w3.org/2000/svg">
    <path d="M30.375 15.1875V25.3125H23.625V15.1875H20.25V38.8125H23.625V28.6875H30.375V38.8125H33.75V15.1875H30.375Z" fill="#A72C24"/>
    <path d="M50.625 25.3125H43.875V10.125C43.875 9.22989 43.5194 8.37145 42.8865 7.73851C42.2535 7.10558 41.3951 6.75 40.5 6.75H13.5C12.6049 6.75 11.7464 7.10558 11.1135 7.73851C10.4806 8.37145 10.125 9.22989 10.125 10.125V25.3125H3.375V28.6875H10.125V43.875C10.125 44.7701 10.4806 45.6285 11.1135 46.2615C11.7464 46.8944 12.6049 47.25 13.5 47.25H40.5C41.3951 47.25 42.2535 46.8944 42.8865 46.2615C43.5194 45.6285 43.875 44.7701 43.875 43.875V28.6875H50.625V25.3125ZM13.5 43.875V10.125H40.5V43.875H13.5Z" fill="#A72C24"/>
</svg>
