<svg width="10" height="10" viewBox="0 0 10 10" fill="none" xmlns="http://www.w3.org/2000/svg">
    <path d="M9.69944 7.34704C9.42186 7.06305 8.22053 6.10806 7.92245 6.04556C7.59085 5.97556 7.32828 6.12806 7.09622 6.26156C6.85765 6.39906 6.6521 6.51806 6.39302 6.42406C5.06516 5.88207 4.1169 4.93408 3.57675 3.6116C3.48122 3.34861 3.59975 3.14211 3.73729 2.90361C3.87083 2.67212 4.02137 2.40912 3.95285 2.07763C3.89083 1.77963 2.93607 0.578652 2.65149 0.301156C2.46344 0.118159 2.27139 0.0171611 2.07483 0.000661338C1.33313 -0.0303382 0.416875 1.03764 0.271335 1.27214C-0.0927652 1.77363 -0.0902645 2.43912 0.277837 3.24711C1.16408 5.41707 4.55202 8.80502 6.74762 9.718C7.15223 9.906 7.52284 10 7.85543 10C8.18152 10 8.4711 9.9095 8.72017 9.7305C8.90772 9.62351 10.0265 8.67452 9.99952 7.91903C9.98351 7.72604 9.88249 7.53404 9.69944 7.34704Z" fill="#949197"/>
</svg>
