<svg width="8" height="10" viewBox="0 0 8 10" fill="none" xmlns="http://www.w3.org/2000/svg">
<path fill-rule="evenodd" clip-rule="evenodd" d="M0.458328 4.29906C0.458328 2.38245 2.05995 0.833328 3.99726 0.833328C5.94004 0.833328 7.54166 2.38245 7.54166 4.29906C7.54166 5.26487 7.19042 6.16151 6.61229 6.92148C5.9745 7.75979 5.18839 8.49019 4.30355 9.06351C4.10104 9.196 3.91828 9.206 3.69602 9.06351C2.80613 8.49019 2.02003 7.75979 1.3877 6.92148C0.809155 6.16151 0.458328 5.26487 0.458328 4.29906ZM2.83092 4.40698C2.83092 5.04904 3.35485 5.55402 3.99726 5.55402C4.6401 5.55402 5.16907 5.04904 5.16907 4.40698C5.16907 3.76991 4.6401 3.24034 3.99726 3.24034C3.35485 3.24034 2.83092 3.76991 2.83092 4.40698Z" fill="#949197"/>
</svg>
