<svg width="10" height="8" viewBox="0 0 10 8" fill="none" xmlns="http://www.w3.org/2000/svg">
<path fill-rule="evenodd" clip-rule="evenodd" d="M7.05809 0.25C7.61684 0.25 8.15434 0.470833 8.54975 0.867083C8.94559 1.2625 9.16684 1.79583 9.16684 2.35417V5.64583C9.16684 6.80833 8.221 7.75 7.05809 7.75H2.94184C1.77892 7.75 0.833504 6.80833 0.833504 5.64583V2.35417C0.833504 1.19167 1.77475 0.25 2.94184 0.25H7.05809ZM7.721 2.975L7.75434 2.94167C7.85392 2.82083 7.85392 2.64583 7.74975 2.525C7.69184 2.46292 7.61225 2.425 7.52934 2.41667C7.44184 2.41208 7.3585 2.44167 7.29559 2.5L5.41684 4C5.17517 4.20042 4.82892 4.20042 4.5835 4L2.7085 2.5C2.57892 2.40417 2.39975 2.41667 2.29184 2.52917C2.17934 2.64167 2.16684 2.82083 2.26225 2.94583L2.31684 3L4.21267 4.47917C4.446 4.6625 4.72892 4.7625 5.02517 4.7625C5.32059 4.7625 5.6085 4.6625 5.84142 4.47917L7.721 2.975Z" fill="#949197"/>
</svg>
