<svg width="10" height="10" viewBox="0 0 10 10" fill="none" xmlns="http://www.w3.org/2000/svg">
<path d="M9.5 5.96525V9.41256H7.48206V6.17545C7.48206 5.37668 7.18778 4.83016 6.47309 4.83016C5.92657 4.83016 5.59025 5.20852 5.46413 5.54484C5.42208 5.67096 5.38005 5.83912 5.38005 6.04933V9.41256H3.36211C3.36211 9.41256 3.40415 3.94731 3.36211 3.40079H5.38005V4.24159C5.63229 3.82119 6.13677 3.23262 7.18778 3.23262C8.49103 3.23262 9.5 4.11547 9.5 5.96525ZM1.26009 0.5C0.587443 0.5 0.125 0.962444 0.125 1.55101C0.125 2.13957 0.545403 2.60202 1.21805 2.60202C1.93274 2.60202 2.35314 2.13957 2.35314 1.55101C2.39518 0.920404 1.97477 0.5 1.26009 0.5ZM0.251121 9.41256H2.26906V3.40079H0.251121V9.41256Z" fill="white"/>
</svg>
