<svg width="180" height="36" viewBox="0 0 180 36" fill="none" xmlns="http://www.w3.org/2000/svg">
    <path d="M5.64648 16.4062H18.1289V8.39453H21.6836V28H18.1289V19.9883H5.64648V28H2.0918V8.39453H5.64648V16.4062ZM71.2578 28H67.6758V16.3242L61.373 27.4121C61.2181 27.6947 60.9993 27.9089 60.7168 28.0547C60.4434 28.2005 60.1471 28.2734 59.8281 28.2734C59.5182 28.2734 59.2266 28.2005 58.9531 28.0547C58.6888 27.9089 58.4792 27.6947 58.3242 27.4121L51.9941 16.3242V28H48.4395V9.91211C48.4395 9.50195 48.5579 9.13737 48.7949 8.81836C49.041 8.49935 49.36 8.28516 49.752 8.17578C49.9434 8.13021 50.1348 8.11654 50.3262 8.13477C50.5176 8.14388 50.6999 8.1849 50.873 8.25781C51.0553 8.32161 51.2194 8.41732 51.3652 8.54492C51.5111 8.66341 51.6341 8.80924 51.7344 8.98242L59.8281 23.0508L67.9219 8.98242C68.1315 8.63607 68.4186 8.38997 68.7832 8.24414C69.1569 8.09831 69.5443 8.07552 69.9453 8.17578C70.3281 8.28516 70.6426 8.49935 70.8887 8.81836C71.1348 9.13737 71.2578 9.50195 71.2578 9.91211V28Z" fill="#1A191D"/>
    <path d="M45.3906 16.5977C45.3906 17.4089 45.2904 18.1335 45.0898 18.7715C44.8893 19.4095 44.6159 19.9746 44.2695 20.4668C43.9323 20.9499 43.5404 21.3646 43.0938 21.7109C42.6471 22.0573 42.1777 22.3398 41.6855 22.5586C41.2025 22.7773 40.7103 22.9368 40.209 23.0371C39.7168 23.1374 39.252 23.1875 38.8145 23.1875H30.7754V19.6328H38.8145C39.2702 19.5964 39.6803 19.5052 40.0449 19.3594C40.4186 19.2044 40.7376 18.9993 41.002 18.7441C41.2663 18.4889 41.4714 18.1836 41.6172 17.8281C41.763 17.4635 41.8359 17.0534 41.8359 16.5977V14.9844C41.7904 14.5378 41.6947 14.1276 41.5488 13.7539C41.403 13.3802 41.2025 13.0612 40.9473 12.7969C40.7012 12.5326 40.4004 12.3275 40.0449 12.1816C39.6895 12.0267 39.2793 11.9492 38.8145 11.9492H30.8027C30.3288 11.9492 29.9688 12.0723 29.7227 12.3184C29.4766 12.5645 29.3535 12.9199 29.3535 13.3848V28H25.7988V13.3848C25.7988 12.4733 25.9629 11.6986 26.291 11.0605C26.6283 10.4225 27.043 9.90755 27.5352 9.51562C28.0365 9.1237 28.5788 8.84115 29.1621 8.66797C29.7454 8.48568 30.2832 8.39453 30.7754 8.39453H38.8145C39.6165 8.39453 40.3366 8.49935 40.9746 8.70898C41.6126 8.90951 42.1732 9.18294 42.6562 9.5293C43.1484 9.86654 43.5632 10.2585 43.9004 10.7051C44.2467 11.1517 44.5293 11.6211 44.748 12.1133C44.9759 12.5964 45.14 13.0885 45.2402 13.5898C45.3405 14.082 45.3906 14.5469 45.3906 14.9844V16.5977Z" fill="#A72C24"/>
    <path d="M81.6133 12.6875H85.1797V10.3984H86.1953V16H85.1797V13.7109H81.6133V16H80.5977V10.3984H81.6133V12.6875ZM88.4102 16H87.3945V10.3984H88.4102V16ZM95.125 15.4883C95.125 15.5612 95.112 15.6289 95.0859 15.6914C95.0599 15.7539 95.0234 15.8086 94.9766 15.8555C94.9323 15.8997 94.8789 15.9349 94.8164 15.9609C94.7539 15.987 94.6862 16 94.6133 16H90.9492C90.8555 16 90.7539 15.9896 90.6445 15.9688C90.5378 15.9453 90.431 15.9102 90.3242 15.8633C90.2201 15.8164 90.1198 15.7565 90.0234 15.6836C89.9271 15.6081 89.8411 15.5182 89.7656 15.4141C89.6927 15.3073 89.6341 15.1849 89.5898 15.0469C89.5456 14.9062 89.5234 14.7487 89.5234 14.5742V11.8242C89.5234 11.7305 89.5339 11.6302 89.5547 11.5234C89.5781 11.4141 89.6133 11.3073 89.6602 11.2031C89.707 11.0964 89.7682 10.9948 89.8438 10.8984C89.9193 10.8021 90.0091 10.7174 90.1133 10.6445C90.2201 10.569 90.3424 10.5091 90.4805 10.4648C90.6185 10.4206 90.7747 10.3984 90.9492 10.3984H95.0781V11.4141H90.9492C90.8164 11.4141 90.7148 11.4492 90.6445 11.5195C90.5742 11.5898 90.5391 11.694 90.5391 11.832V14.5742C90.5391 14.7044 90.5742 14.806 90.6445 14.8789C90.7174 14.9492 90.819 14.9844 90.9492 14.9844H94.1094V13.7109H91.4062V12.6875H94.6133C94.6862 12.6875 94.7539 12.7018 94.8164 12.7305C94.8789 12.7565 94.9323 12.793 94.9766 12.8398C95.0234 12.8867 95.0599 12.9414 95.0859 13.0039C95.112 13.0638 95.125 13.1289 95.125 13.1992V15.4883ZM97.207 12.6875H100.773V10.3984H101.789V16H100.773V13.7109H97.207V16H96.1914V10.3984H97.207V12.6875ZM111.164 12.7422C111.164 12.974 111.135 13.181 111.078 13.3633C111.021 13.5456 110.943 13.707 110.844 13.8477C110.747 13.9857 110.635 14.1042 110.508 14.2031C110.38 14.3021 110.246 14.3828 110.105 14.4453C109.967 14.5078 109.827 14.5534 109.684 14.582C109.543 14.6107 109.41 14.625 109.285 14.625H106.988V13.6094H109.285C109.415 13.599 109.533 13.5729 109.637 13.5312C109.743 13.487 109.835 13.4284 109.91 13.3555C109.986 13.2826 110.044 13.1953 110.086 13.0938C110.128 12.9896 110.148 12.8724 110.148 12.7422V12.2812C110.135 12.1536 110.108 12.0365 110.066 11.9297C110.025 11.8229 109.967 11.7318 109.895 11.6562C109.824 11.5807 109.738 11.5221 109.637 11.4805C109.535 11.4362 109.418 11.4141 109.285 11.4141H106.996C106.861 11.4141 106.758 11.4492 106.688 11.5195C106.617 11.5898 106.582 11.6914 106.582 11.8242V16H105.566V11.8242C105.566 11.5638 105.613 11.3424 105.707 11.1602C105.803 10.9779 105.922 10.8307 106.062 10.7188C106.206 10.6068 106.361 10.526 106.527 10.4766C106.694 10.4245 106.848 10.3984 106.988 10.3984H109.285C109.514 10.3984 109.72 10.4284 109.902 10.4883C110.085 10.5456 110.245 10.6237 110.383 10.7227C110.523 10.819 110.642 10.931 110.738 11.0586C110.837 11.1862 110.918 11.3203 110.98 11.4609C111.046 11.599 111.092 11.7396 111.121 11.8828C111.15 12.0234 111.164 12.1562 111.164 12.2812V12.7422ZM117.633 12.2812C117.633 12.513 117.604 12.7201 117.547 12.9023C117.49 13.0846 117.411 13.2461 117.312 13.3867C117.216 13.5247 117.104 13.6432 116.977 13.7422C116.849 13.8411 116.715 13.9232 116.574 13.9883C116.436 14.0508 116.296 14.0964 116.152 14.125C116.012 14.1536 115.879 14.168 115.754 14.168L117.875 16H116.305L114.188 14.168H113.457V13.1523H115.754C115.882 13.1419 115.997 13.1159 116.102 13.0742C116.208 13.0299 116.299 12.9714 116.375 12.8984C116.453 12.8255 116.513 12.7383 116.555 12.6367C116.596 12.5326 116.617 12.4141 116.617 12.2812V11.6406C116.617 11.5833 116.609 11.5404 116.594 11.5117C116.581 11.4805 116.562 11.4583 116.539 11.4453C116.518 11.4297 116.495 11.4206 116.469 11.418C116.445 11.4154 116.423 11.4141 116.402 11.4141H113.051V16H112.035V10.9102C112.035 10.8398 112.048 10.7734 112.074 10.7109C112.1 10.6484 112.135 10.5938 112.18 10.5469C112.227 10.5 112.281 10.4635 112.344 10.4375C112.406 10.4115 112.474 10.3984 112.547 10.3984H116.402C116.629 10.3984 116.82 10.4401 116.977 10.5234C117.133 10.6042 117.259 10.707 117.355 10.832C117.454 10.9544 117.525 11.0872 117.566 11.2305C117.611 11.3737 117.633 11.5078 117.633 11.6328V12.2812ZM123.258 13.7109H120.051V12.6875H123.258V13.7109ZM123.715 16H120.051C119.91 16 119.757 15.9753 119.59 15.9258C119.423 15.8763 119.268 15.7956 119.125 15.6836C118.984 15.569 118.866 15.4219 118.77 15.2422C118.676 15.0599 118.629 14.8372 118.629 14.5742V10.9102C118.629 10.8398 118.642 10.7734 118.668 10.7109C118.694 10.6484 118.729 10.5938 118.773 10.5469C118.82 10.5 118.875 10.4635 118.938 10.4375C119 10.4115 119.068 10.3984 119.141 10.3984H123.715V11.4141H119.645V14.5742C119.645 14.707 119.68 14.8086 119.75 14.8789C119.82 14.9492 119.923 14.9844 120.059 14.9844H123.715V16ZM129.676 16H126.012C125.918 16 125.816 15.9896 125.707 15.9688C125.6 15.9453 125.493 15.9102 125.387 15.8633C125.283 15.8164 125.182 15.7565 125.086 15.6836C124.99 15.6081 124.904 15.5182 124.828 15.4141C124.755 15.3073 124.697 15.1849 124.652 15.0469C124.608 14.9062 124.586 14.7487 124.586 14.5742V11.8242C124.586 11.7305 124.596 11.6302 124.617 11.5234C124.641 11.4141 124.676 11.3073 124.723 11.2031C124.77 11.0964 124.831 10.9948 124.906 10.8984C124.982 10.8021 125.072 10.7174 125.176 10.6445C125.283 10.569 125.405 10.5091 125.543 10.4648C125.681 10.4206 125.837 10.3984 126.012 10.3984H129.676V11.4141H126.012C125.879 11.4141 125.777 11.4492 125.707 11.5195C125.637 11.5898 125.602 11.694 125.602 11.832V14.5742C125.602 14.7044 125.637 14.806 125.707 14.8789C125.78 14.9492 125.882 14.9844 126.012 14.9844H129.676V16ZM131.66 16H130.645V10.3984H131.66V16ZM138.23 14.3516C138.23 14.5521 138.204 14.7331 138.152 14.8945C138.103 15.0534 138.036 15.194 137.953 15.3164C137.87 15.4388 137.772 15.543 137.66 15.6289C137.548 15.7148 137.432 15.7852 137.312 15.8398C137.193 15.8945 137.07 15.9349 136.945 15.9609C136.823 15.987 136.707 16 136.598 16H132.68V14.9844H136.598C136.793 14.9844 136.944 14.9271 137.051 14.8125C137.16 14.6979 137.215 14.5443 137.215 14.3516C137.215 14.2578 137.201 14.1719 137.172 14.0938C137.143 14.0156 137.102 13.9479 137.047 13.8906C136.995 13.8333 136.93 13.7891 136.852 13.7578C136.776 13.7266 136.691 13.7109 136.598 13.7109H134.262C134.098 13.7109 133.921 13.6823 133.73 13.625C133.54 13.5651 133.363 13.4701 133.199 13.3398C133.038 13.2096 132.902 13.0391 132.793 12.8281C132.686 12.6172 132.633 12.3594 132.633 12.0547C132.633 11.75 132.686 11.4935 132.793 11.2852C132.902 11.0742 133.038 10.9036 133.199 10.7734C133.363 10.6406 133.54 10.5456 133.73 10.4883C133.921 10.4284 134.098 10.3984 134.262 10.3984H137.719V11.4141H134.262C134.069 11.4141 133.918 11.4727 133.809 11.5898C133.702 11.707 133.648 11.862 133.648 12.0547C133.648 12.25 133.702 12.4049 133.809 12.5195C133.918 12.6315 134.069 12.6875 134.262 12.6875H136.598H136.605C136.715 12.6901 136.831 12.7057 136.953 12.7344C137.076 12.7604 137.197 12.8021 137.316 12.8594C137.439 12.9167 137.555 12.9896 137.664 13.0781C137.773 13.1641 137.87 13.2682 137.953 13.3906C138.039 13.513 138.107 13.6536 138.156 13.8125C138.206 13.9714 138.23 14.151 138.23 14.3516ZM140.098 16H139.082V10.3984H140.098V16ZM147.164 13.7344C147.164 14.0755 147.105 14.3893 146.988 14.6758C146.871 14.9622 146.708 15.2096 146.5 15.418C146.292 15.6263 146.044 15.7891 145.758 15.9062C145.474 16.0208 145.164 16.0781 144.828 16.0781H143.453C143.117 16.0781 142.806 16.0208 142.52 15.9062C142.233 15.7891 141.986 15.6263 141.777 15.418C141.569 15.2096 141.405 14.9622 141.285 14.6758C141.168 14.3893 141.109 14.0755 141.109 13.7344V12.6641C141.109 12.3255 141.168 12.013 141.285 11.7266C141.405 11.4375 141.569 11.1901 141.777 10.9844C141.986 10.776 142.233 10.6133 142.52 10.4961C142.806 10.3789 143.117 10.3203 143.453 10.3203H144.828C145.164 10.3203 145.474 10.3789 145.758 10.4961C146.044 10.6133 146.292 10.776 146.5 10.9844C146.708 11.1901 146.871 11.4375 146.988 11.7266C147.105 12.013 147.164 12.3255 147.164 12.6641V13.7344ZM146.148 12.6641C146.148 12.4635 146.116 12.2826 146.051 12.1211C145.988 11.957 145.898 11.8177 145.781 11.7031C145.667 11.5859 145.527 11.4961 145.363 11.4336C145.202 11.3685 145.023 11.3359 144.828 11.3359H143.453C143.255 11.3359 143.074 11.3685 142.91 11.4336C142.749 11.4961 142.609 11.5859 142.492 11.7031C142.375 11.8177 142.284 11.957 142.219 12.1211C142.156 12.2826 142.125 12.4635 142.125 12.6641V13.7344C142.125 13.9349 142.156 14.1172 142.219 14.2812C142.284 14.4427 142.375 14.582 142.492 14.6992C142.609 14.8138 142.749 14.9036 142.91 14.9688C143.074 15.0312 143.255 15.0625 143.453 15.0625H144.82C145.018 15.0625 145.198 15.0312 145.359 14.9688C145.523 14.9036 145.664 14.8138 145.781 14.6992C145.898 14.582 145.988 14.4427 146.051 14.2812C146.116 14.1172 146.148 13.9349 146.148 13.7344V12.6641ZM153.766 15.5664C153.766 15.6393 153.751 15.707 153.723 15.7695C153.697 15.832 153.66 15.8867 153.613 15.9336C153.569 15.9779 153.516 16.013 153.453 16.0391C153.391 16.0651 153.324 16.0781 153.254 16.0781C153.191 16.0781 153.128 16.0664 153.062 16.043C153 16.0195 152.944 15.9818 152.895 15.9297L149.184 12.0547V16H148.168V10.832C148.168 10.7279 148.197 10.6341 148.254 10.5508C148.314 10.4648 148.389 10.401 148.48 10.3594C148.577 10.3203 148.676 10.3112 148.777 10.332C148.879 10.3503 148.966 10.3971 149.039 10.4727L152.75 14.3438V10.3984H153.766V15.5664ZM87.1094 26H86.0859V22.6641L84.2852 25.832C84.2409 25.9128 84.1784 25.974 84.0977 26.0156C84.0195 26.0573 83.9349 26.0781 83.8438 26.0781C83.7552 26.0781 83.6719 26.0573 83.5938 26.0156C83.5182 25.974 83.4583 25.9128 83.4141 25.832L81.6055 22.6641V26H80.5898V20.832C80.5898 20.7148 80.6237 20.6107 80.6914 20.5195C80.7617 20.4284 80.8529 20.3672 80.9648 20.3359C81.0195 20.3229 81.0742 20.319 81.1289 20.3242C81.1836 20.3268 81.2357 20.3385 81.2852 20.3594C81.3372 20.3776 81.3841 20.4049 81.4258 20.4414C81.4674 20.4753 81.5026 20.5169 81.5312 20.5664L83.8438 24.5859L86.1562 20.5664C86.2161 20.4674 86.2982 20.3971 86.4023 20.3555C86.5091 20.3138 86.6198 20.3073 86.7344 20.3359C86.8438 20.3672 86.9336 20.4284 87.0039 20.5195C87.0742 20.6107 87.1094 20.7148 87.1094 20.832V26ZM92.8984 23.7109H89.6914V22.6875H92.8984V23.7109ZM93.3555 26H89.6914C89.5508 26 89.3971 25.9753 89.2305 25.9258C89.0638 25.8763 88.9089 25.7956 88.7656 25.6836C88.625 25.569 88.5065 25.4219 88.4102 25.2422C88.3164 25.0599 88.2695 24.8372 88.2695 24.5742V20.9102C88.2695 20.8398 88.2826 20.7734 88.3086 20.7109C88.3346 20.6484 88.3698 20.5938 88.4141 20.5469C88.4609 20.5 88.5156 20.4635 88.5781 20.4375C88.6406 20.4115 88.7083 20.3984 88.7812 20.3984H93.3555V21.4141H89.2852V24.5742C89.2852 24.707 89.3203 24.8086 89.3906 24.8789C89.4609 24.9492 89.5638 24.9844 89.6992 24.9844H93.3555V26ZM99.8359 26H98.8203V24.625H95.25V26H94.2344V23.1992C94.2344 22.7904 94.3047 22.4141 94.4453 22.0703C94.5859 21.7266 94.7812 21.431 95.0312 21.1836C95.2812 20.9362 95.5768 20.7435 95.918 20.6055C96.2591 20.4674 96.6315 20.3984 97.0352 20.3984H99.3242C99.3945 20.3984 99.4609 20.4115 99.5234 20.4375C99.5859 20.4635 99.6406 20.5 99.6875 20.5469C99.7344 20.5938 99.7708 20.6484 99.7969 20.7109C99.8229 20.7734 99.8359 20.8398 99.8359 20.9102V26ZM95.25 23.6094H98.8203V21.4141H97.0352C97.0039 21.4141 96.9375 21.4193 96.8359 21.4297C96.737 21.4375 96.6211 21.4596 96.4883 21.4961C96.3581 21.5326 96.2201 21.5885 96.0742 21.6641C95.9284 21.7396 95.7943 21.8438 95.6719 21.9766C95.5495 22.1094 95.4479 22.276 95.3672 22.4766C95.2891 22.6745 95.25 22.9154 95.25 23.1992V23.6094ZM106.402 24.3516C106.402 24.5521 106.376 24.7331 106.324 24.8945C106.275 25.0534 106.208 25.194 106.125 25.3164C106.042 25.4388 105.944 25.543 105.832 25.6289C105.72 25.7148 105.604 25.7852 105.484 25.8398C105.365 25.8945 105.242 25.9349 105.117 25.9609C104.995 25.987 104.879 26 104.77 26H100.852V24.9844H104.77C104.965 24.9844 105.116 24.9271 105.223 24.8125C105.332 24.6979 105.387 24.5443 105.387 24.3516C105.387 24.2578 105.372 24.1719 105.344 24.0938C105.315 24.0156 105.273 23.9479 105.219 23.8906C105.167 23.8333 105.102 23.7891 105.023 23.7578C104.948 23.7266 104.863 23.7109 104.77 23.7109H102.434C102.27 23.7109 102.092 23.6823 101.902 23.625C101.712 23.5651 101.535 23.4701 101.371 23.3398C101.21 23.2096 101.074 23.0391 100.965 22.8281C100.858 22.6172 100.805 22.3594 100.805 22.0547C100.805 21.75 100.858 21.4935 100.965 21.2852C101.074 21.0742 101.21 20.9036 101.371 20.7734C101.535 20.6406 101.712 20.5456 101.902 20.4883C102.092 20.4284 102.27 20.3984 102.434 20.3984H105.891V21.4141H102.434C102.241 21.4141 102.09 21.4727 101.98 21.5898C101.874 21.707 101.82 21.862 101.82 22.0547C101.82 22.25 101.874 22.4049 101.98 22.5195C102.09 22.6315 102.241 22.6875 102.434 22.6875H104.77H104.777C104.887 22.6901 105.003 22.7057 105.125 22.7344C105.247 22.7604 105.368 22.8021 105.488 22.8594C105.611 22.9167 105.727 22.9896 105.836 23.0781C105.945 23.1641 106.042 23.2682 106.125 23.3906C106.211 23.513 106.279 23.6536 106.328 23.8125C106.378 23.9714 106.402 24.151 106.402 24.3516ZM112.734 25.4883C112.734 25.5612 112.721 25.6289 112.695 25.6914C112.669 25.7539 112.633 25.8086 112.586 25.8555C112.539 25.8997 112.484 25.9349 112.422 25.9609C112.359 25.987 112.293 26 112.223 26H109.934C109.717 26 109.499 25.9766 109.277 25.9297C109.056 25.8828 108.841 25.8112 108.633 25.7148C108.427 25.6159 108.233 25.4909 108.051 25.3398C107.868 25.1888 107.708 25.0104 107.57 24.8047C107.435 24.5964 107.328 24.3594 107.25 24.0938C107.172 23.8255 107.133 23.5273 107.133 23.1992V20.3984H108.148V23.1992C108.148 23.4857 108.188 23.7279 108.266 23.9258C108.346 24.1237 108.448 24.2891 108.57 24.4219C108.693 24.5547 108.827 24.6589 108.973 24.7344C109.118 24.8099 109.257 24.8659 109.387 24.9023C109.52 24.9388 109.635 24.9622 109.734 24.9727C109.836 24.9805 109.902 24.9844 109.934 24.9844H111.719V20.3984H112.734V25.4883ZM119.516 22.2812C119.516 22.513 119.487 22.7201 119.43 22.9023C119.372 23.0846 119.294 23.2461 119.195 23.3867C119.099 23.5247 118.987 23.6432 118.859 23.7422C118.732 23.8411 118.598 23.9232 118.457 23.9883C118.319 24.0508 118.178 24.0964 118.035 24.125C117.895 24.1536 117.762 24.168 117.637 24.168L119.758 26H118.188L116.07 24.168H115.34V23.1523H117.637C117.764 23.1419 117.88 23.1159 117.984 23.0742C118.091 23.0299 118.182 22.9714 118.258 22.8984C118.336 22.8255 118.396 22.7383 118.438 22.6367C118.479 22.5326 118.5 22.4141 118.5 22.2812V21.6406C118.5 21.5833 118.492 21.5404 118.477 21.5117C118.464 21.4805 118.445 21.4583 118.422 21.4453C118.401 21.4297 118.378 21.4206 118.352 21.418C118.328 21.4154 118.306 21.4141 118.285 21.4141H114.934V26H113.918V20.9102C113.918 20.8398 113.931 20.7734 113.957 20.7109C113.983 20.6484 114.018 20.5938 114.062 20.5469C114.109 20.5 114.164 20.4635 114.227 20.4375C114.289 20.4115 114.357 20.3984 114.43 20.3984H118.285C118.512 20.3984 118.703 20.4401 118.859 20.5234C119.016 20.6042 119.142 20.707 119.238 20.832C119.337 20.9544 119.408 21.0872 119.449 21.2305C119.493 21.3737 119.516 21.5078 119.516 21.6328V22.2812ZM125.141 23.7109H121.934V22.6875H125.141V23.7109ZM125.598 26H121.934C121.793 26 121.639 25.9753 121.473 25.9258C121.306 25.8763 121.151 25.7956 121.008 25.6836C120.867 25.569 120.749 25.4219 120.652 25.2422C120.559 25.0599 120.512 24.8372 120.512 24.5742V20.9102C120.512 20.8398 120.525 20.7734 120.551 20.7109C120.577 20.6484 120.612 20.5938 120.656 20.5469C120.703 20.5 120.758 20.4635 120.82 20.4375C120.883 20.4115 120.951 20.3984 121.023 20.3984H125.598V21.4141H121.527V24.5742C121.527 24.707 121.562 24.8086 121.633 24.8789C121.703 24.9492 121.806 24.9844 121.941 24.9844H125.598V26ZM133.102 26H132.078V22.6641L130.277 25.832C130.233 25.9128 130.171 25.974 130.09 26.0156C130.012 26.0573 129.927 26.0781 129.836 26.0781C129.747 26.0781 129.664 26.0573 129.586 26.0156C129.51 25.974 129.451 25.9128 129.406 25.832L127.598 22.6641V26H126.582V20.832C126.582 20.7148 126.616 20.6107 126.684 20.5195C126.754 20.4284 126.845 20.3672 126.957 20.3359C127.012 20.3229 127.066 20.319 127.121 20.3242C127.176 20.3268 127.228 20.3385 127.277 20.3594C127.329 20.3776 127.376 20.4049 127.418 20.4414C127.46 20.4753 127.495 20.5169 127.523 20.5664L129.836 24.5859L132.148 20.5664C132.208 20.4674 132.29 20.3971 132.395 20.3555C132.501 20.3138 132.612 20.3073 132.727 20.3359C132.836 20.3672 132.926 20.4284 132.996 20.5195C133.066 20.6107 133.102 20.7148 133.102 20.832V26ZM138.891 23.7109H135.684V22.6875H138.891V23.7109ZM139.348 26H135.684C135.543 26 135.389 25.9753 135.223 25.9258C135.056 25.8763 134.901 25.7956 134.758 25.6836C134.617 25.569 134.499 25.4219 134.402 25.2422C134.309 25.0599 134.262 24.8372 134.262 24.5742V20.9102C134.262 20.8398 134.275 20.7734 134.301 20.7109C134.327 20.6484 134.362 20.5938 134.406 20.5469C134.453 20.5 134.508 20.4635 134.57 20.4375C134.633 20.4115 134.701 20.3984 134.773 20.3984H139.348V21.4141H135.277V24.5742C135.277 24.707 135.312 24.8086 135.383 24.8789C135.453 24.9492 135.556 24.9844 135.691 24.9844H139.348V26ZM145.93 25.5664C145.93 25.6393 145.915 25.707 145.887 25.7695C145.861 25.832 145.824 25.8867 145.777 25.9336C145.733 25.9779 145.68 26.013 145.617 26.0391C145.555 26.0651 145.488 26.0781 145.418 26.0781C145.355 26.0781 145.292 26.0664 145.227 26.043C145.164 26.0195 145.108 25.9818 145.059 25.9297L141.348 22.0547V26H140.332V20.832C140.332 20.7279 140.361 20.6341 140.418 20.5508C140.478 20.4648 140.553 20.401 140.645 20.3594C140.741 20.3203 140.84 20.3112 140.941 20.332C141.043 20.3503 141.13 20.3971 141.203 20.4727L144.914 24.3438V20.3984H145.93V25.5664ZM152.176 21.4141H149.938V26H148.922V21.4141H146.68V20.3984H152.176V21.4141ZM158.309 24.3516C158.309 24.5521 158.283 24.7331 158.23 24.8945C158.181 25.0534 158.115 25.194 158.031 25.3164C157.948 25.4388 157.85 25.543 157.738 25.6289C157.626 25.7148 157.51 25.7852 157.391 25.8398C157.271 25.8945 157.148 25.9349 157.023 25.9609C156.901 25.987 156.785 26 156.676 26H152.758V24.9844H156.676C156.871 24.9844 157.022 24.9271 157.129 24.8125C157.238 24.6979 157.293 24.5443 157.293 24.3516C157.293 24.2578 157.279 24.1719 157.25 24.0938C157.221 24.0156 157.18 23.9479 157.125 23.8906C157.073 23.8333 157.008 23.7891 156.93 23.7578C156.854 23.7266 156.77 23.7109 156.676 23.7109H154.34C154.176 23.7109 153.999 23.6823 153.809 23.625C153.618 23.5651 153.441 23.4701 153.277 23.3398C153.116 23.2096 152.98 23.0391 152.871 22.8281C152.764 22.6172 152.711 22.3594 152.711 22.0547C152.711 21.75 152.764 21.4935 152.871 21.2852C152.98 21.0742 153.116 20.9036 153.277 20.7734C153.441 20.6406 153.618 20.5456 153.809 20.4883C153.999 20.4284 154.176 20.3984 154.34 20.3984H157.797V21.4141H154.34C154.147 21.4141 153.996 21.4727 153.887 21.5898C153.78 21.707 153.727 21.862 153.727 22.0547C153.727 22.25 153.78 22.4049 153.887 22.5195C153.996 22.6315 154.147 22.6875 154.34 22.6875H156.676H156.684C156.793 22.6901 156.909 22.7057 157.031 22.7344C157.154 22.7604 157.275 22.8021 157.395 22.8594C157.517 22.9167 157.633 22.9896 157.742 23.0781C157.852 23.1641 157.948 23.2682 158.031 23.3906C158.117 23.513 158.185 23.6536 158.234 23.8125C158.284 23.9714 158.309 24.151 158.309 24.3516Z" fill="#1A191D" fill-opacity="0.46"/>
</svg>
